<svg xmlns="http://www.w3.org/2000/svg" version="1.1" xmlns:xlink="http://www.w3.org/1999/xlink" xmlns:svgjs="http://svgjs.com/svgjs" width="1440" height="560" preserveAspectRatio="none" viewBox="0 0 1440 560"><g mask="url(&quot;#SvgjsMask1320&quot;)" fill="none"><rect width="1440" height="560" x="0" y="0" fill="url(#SvgjsLinearGradient1321)"></rect><path d="M-69.44 370.36L-69.44 370.36" stroke="#132e65" stroke-width="1.5"></path><path d="M-69.44 370.36L51.73 388.92" stroke="#132e65" stroke-width="1.5"></path><path d="M-69.44 370.36L-37.92 506.09" stroke="#132e65" stroke-width="1.5"></path><path d="M-69.44 370.36L60.74 556.16" stroke="#132e65" stroke-width="1.5"></path><path d="M-69.44 370.36L195.66 412.31" stroke="#132e65" stroke-width="1.5"></path><path d="M-69.44 370.36L-40.35 685.38" stroke="#132e65" stroke-width="1.5"></path><path d="M-69.44 370.36L45.37 685.87" stroke="#132e65" stroke-width="1.5"></path><path d="M-37.92 506.09L-37.92 506.09" stroke="#132e65" stroke-width="1.5"></path><path d="M-37.92 506.09L60.74 556.16" stroke="#132e65" stroke-width="1.5"></path><path d="M-37.92 506.09L51.73 388.92" stroke="#132e65" stroke-width="1.5"></path><path d="M-37.92 506.09L-40.35 685.38" stroke="#132e65" stroke-width="1.5"></path><path d="M-37.92 506.09L45.37 685.87" stroke="#132e65" stroke-width="1.5"></path><path d="M-37.92 506.09L195.66 412.31" stroke="#132e65" stroke-width="1.5"></path><path d="M-40.35 685.38L-40.35 685.38" stroke="#132e65" stroke-width="1.5"></path><path d="M-40.35 685.38L45.37 685.87" stroke="#132e65" stroke-width="1.5"></path><path d="M-40.35 685.38L60.74 556.16" stroke="#132e65" stroke-width="1.5"></path><path d="M51.73 388.92L51.73 388.92" stroke="#132e65" stroke-width="1.5"></path><path d="M51.73 388.92L195.66 412.31" stroke="#132e65" stroke-width="1.5"></path><path d="M51.73 388.92L60.74 556.16" stroke="#132e65" stroke-width="1.5"></path><path d="M60.74 556.16L60.74 556.16" stroke="#132e65" stroke-width="1.5"></path><path d="M60.74 556.16L45.37 685.87" stroke="#132e65" stroke-width="1.5"></path><path d="M60.74 556.16L190.89 644.58" stroke="#132e65" stroke-width="1.5"></path><path d="M45.37 685.87L45.37 685.87" stroke="#132e65" stroke-width="1.5"></path><path d="M45.37 685.87L190.89 644.58" stroke="#132e65" stroke-width="1.5"></path><path d="M195.66 412.31L195.66 412.31" stroke="#132e65" stroke-width="1.5"></path><path d="M195.66 412.31L248.88 556.41" stroke="#132e65" stroke-width="1.5"></path><path d="M195.66 412.31L385.62 365.84" stroke="#132e65" stroke-width="1.5"></path><path d="M248.88 556.41L248.88 556.41" stroke="#132e65" stroke-width="1.5"></path><path d="M248.88 556.41L190.89 644.58" stroke="#132e65" stroke-width="1.5"></path><path d="M248.88 556.41L368.28 638.8" stroke="#132e65" stroke-width="1.5"></path><path d="M190.89 644.58L190.89 644.58" stroke="#132e65" stroke-width="1.5"></path><path d="M385.62 365.84L385.62 365.84" stroke="#132e65" stroke-width="1.5"></path><path d="M385.62 365.84L521.74 412.19" stroke="#132e65" stroke-width="1.5"></path><path d="M385.62 365.84L248.88 556.41" stroke="#132e65" stroke-width="1.5"></path><path d="M368.28 638.8L368.28 638.8" stroke="#132e65" stroke-width="1.5"></path><path d="M368.28 638.8L190.89 644.58" stroke="#132e65" stroke-width="1.5"></path><path d="M368.28 638.8L544.69 661.1" stroke="#132e65" stroke-width="1.5"></path><path d="M368.28 638.8L562.44 558.83" stroke="#132e65" stroke-width="1.5"></path><path d="M368.28 638.8L385.62 365.84" stroke="#132e65" stroke-width="1.5"></path><path d="M521.74 412.19L521.74 412.19" stroke="#132e65" stroke-width="1.5"></path><path d="M521.74 412.19L562.44 558.83" stroke="#132e65" stroke-width="1.5"></path><path d="M521.74 412.19L671.9 507.21" stroke="#132e65" stroke-width="1.5"></path><path d="M521.74 412.19L691.98 350.26" stroke="#132e65" stroke-width="1.5"></path><path d="M521.74 412.19L544.69 661.1" stroke="#132e65" stroke-width="1.5"></path><path d="M562.44 558.83L562.44 558.83" stroke="#132e65" stroke-width="1.5"></path><path d="M562.44 558.83L544.69 661.1" stroke="#132e65" stroke-width="1.5"></path><path d="M562.44 558.83L671.9 507.21" stroke="#132e65" stroke-width="1.5"></path><path d="M544.69 661.1L544.69 661.1" stroke="#132e65" stroke-width="1.5"></path><path d="M544.69 661.1L704.19 669" stroke="#132e65" stroke-width="1.5"></path><path d="M544.69 661.1L671.9 507.21" stroke="#132e65" stroke-width="1.5"></path><path d="M712.23 225.94L712.23 225.94" stroke="#132e65" stroke-width="1.5"></path><path d="M712.23 225.94L691.98 350.26" stroke="#132e65" stroke-width="1.5"></path><path d="M712.23 225.94L843.87 216.65" stroke="#132e65" stroke-width="1.5"></path><path d="M712.23 225.94L847.95 347.32" stroke="#132e65" stroke-width="1.5"></path><path d="M712.23 225.94L521.74 412.19" stroke="#132e65" stroke-width="1.5"></path><path d="M712.23 225.94L671.9 507.21" stroke="#132e65" stroke-width="1.5"></path><path d="M712.23 225.94L1010.09 245.99" stroke="#132e65" stroke-width="1.5"></path><path d="M691.98 350.26L691.98 350.26" stroke="#132e65" stroke-width="1.5"></path><path d="M691.98 350.26L847.95 347.32" stroke="#132e65" stroke-width="1.5"></path><path d="M671.9 507.21L671.9 507.21" stroke="#132e65" stroke-width="1.5"></path><path d="M671.9 507.21L811.92 516.58" stroke="#132e65" stroke-width="1.5"></path><path d="M704.19 669L704.19 669" stroke="#132e65" stroke-width="1.5"></path><path d="M704.19 669L819.38 702.84" stroke="#132e65" stroke-width="1.5"></path><path d="M704.19 669L671.9 507.21" stroke="#132e65" stroke-width="1.5"></path><path d="M704.19 669L562.44 558.83" stroke="#132e65" stroke-width="1.5"></path><path d="M704.19 669L811.92 516.58" stroke="#132e65" stroke-width="1.5"></path><path d="M704.19 669L962.44 701.07" stroke="#132e65" stroke-width="1.5"></path><path d="M843.87 216.65L843.87 216.65" stroke="#132e65" stroke-width="1.5"></path><path d="M843.87 216.65L847.95 347.32" stroke="#132e65" stroke-width="1.5"></path><path d="M843.87 216.65L1010.09 245.99" stroke="#132e65" stroke-width="1.5"></path><path d="M843.87 216.65L691.98 350.26" stroke="#132e65" stroke-width="1.5"></path><path d="M847.95 347.32L847.95 347.32" stroke="#132e65" stroke-width="1.5"></path><path d="M847.95 347.32L998.1 373.33" stroke="#132e65" stroke-width="1.5"></path><path d="M811.92 516.58L811.92 516.58" stroke="#132e65" stroke-width="1.5"></path><path d="M811.92 516.58L942.25 489.25" stroke="#132e65" stroke-width="1.5"></path><path d="M819.38 702.84L819.38 702.84" stroke="#132e65" stroke-width="1.5"></path><path d="M819.38 702.84L962.44 701.07" stroke="#132e65" stroke-width="1.5"></path><path d="M995.72 -40.43L995.72 -40.43" stroke="#132e65" stroke-width="1.5"></path><path d="M995.72 -40.43L954.56 44.27" stroke="#132e65" stroke-width="1.5"></path><path d="M995.72 -40.43L1112.16 -105.72" stroke="#132e65" stroke-width="1.5"></path><path d="M954.56 44.27L954.56 44.27" stroke="#132e65" stroke-width="1.5"></path><path d="M1010.09 245.99L1010.09 245.99" stroke="#132e65" stroke-width="1.5"></path><path d="M1010.09 245.99L1122.02 259.05" stroke="#132e65" stroke-width="1.5"></path><path d="M1010.09 245.99L998.1 373.33" stroke="#132e65" stroke-width="1.5"></path><path d="M1010.09 245.99L1089.44 361.25" stroke="#132e65" stroke-width="1.5"></path><path d="M998.1 373.33L998.1 373.33" stroke="#132e65" stroke-width="1.5"></path><path d="M998.1 373.33L1089.44 361.25" stroke="#132e65" stroke-width="1.5"></path><path d="M942.25 489.25L942.25 489.25" stroke="#132e65" stroke-width="1.5"></path><path d="M942.25 489.25L998.1 373.33" stroke="#132e65" stroke-width="1.5"></path><path d="M942.25 489.25L847.95 347.32" stroke="#132e65" stroke-width="1.5"></path><path d="M962.44 701.07L962.44 701.07" stroke="#132e65" stroke-width="1.5"></path><path d="M962.44 701.07L1130.79 685.45" stroke="#132e65" stroke-width="1.5"></path><path d="M962.44 701.07L942.25 489.25" stroke="#132e65" stroke-width="1.5"></path><path d="M1112.16 -105.72L1112.16 -105.72" stroke="#132e65" stroke-width="1.5"></path><path d="M1112.16 -105.72L1255.58 -81.89" stroke="#132e65" stroke-width="1.5"></path><path d="M1112.16 -105.72L1117.95 59.78" stroke="#132e65" stroke-width="1.5"></path><path d="M1112.16 -105.72L954.56 44.27" stroke="#132e65" stroke-width="1.5"></path><path d="M1117.95 59.78L1117.95 59.78" stroke="#132e65" stroke-width="1.5"></path><path d="M1117.95 59.78L995.72 -40.43" stroke="#132e65" stroke-width="1.5"></path><path d="M1117.95 59.78L954.56 44.27" stroke="#132e65" stroke-width="1.5"></path><path d="M1117.95 59.78L1283.23 52.73" stroke="#132e65" stroke-width="1.5"></path><path d="M1117.95 59.78L1255.58 -81.89" stroke="#132e65" stroke-width="1.5"></path><path d="M1122.02 259.05L1122.02 259.05" stroke="#132e65" stroke-width="1.5"></path><path d="M1122.02 259.05L1089.44 361.25" stroke="#132e65" stroke-width="1.5"></path><path d="M1122.02 259.05L998.1 373.33" stroke="#132e65" stroke-width="1.5"></path><path d="M1122.02 259.05L1311.55 214.78" stroke="#132e65" stroke-width="1.5"></path><path d="M1122.02 259.05L1117.95 59.78" stroke="#132e65" stroke-width="1.5"></path><path d="M1122.02 259.05L1287.59 370.55" stroke="#132e65" stroke-width="1.5"></path><path d="M1089.44 361.25L1089.44 361.25" stroke="#132e65" stroke-width="1.5"></path><path d="M1089.44 361.25L942.25 489.25" stroke="#132e65" stroke-width="1.5"></path><path d="M1089.44 361.25L1287.59 370.55" stroke="#132e65" stroke-width="1.5"></path><path d="M1130.79 685.45L1130.79 685.45" stroke="#132e65" stroke-width="1.5"></path><path d="M1130.79 685.45L1271.31 686.09" stroke="#132e65" stroke-width="1.5"></path><path d="M1255.58 -81.89L1255.58 -81.89" stroke="#132e65" stroke-width="1.5"></path><path d="M1255.58 -81.89L1283.23 52.73" stroke="#132e65" stroke-width="1.5"></path><path d="M1255.58 -81.89L1413.09 -111.89" stroke="#132e65" stroke-width="1.5"></path><path d="M1283.23 52.73L1283.23 52.73" stroke="#132e65" stroke-width="1.5"></path><path d="M1283.23 52.73L1408.12 59.72" stroke="#132e65" stroke-width="1.5"></path><path d="M1283.23 52.73L1311.55 214.78" stroke="#132e65" stroke-width="1.5"></path><path d="M1283.23 52.73L1413.09 -111.89" stroke="#132e65" stroke-width="1.5"></path><path d="M1311.55 214.78L1311.55 214.78" stroke="#132e65" stroke-width="1.5"></path><path d="M1311.55 214.78L1435.74 239.94" stroke="#132e65" stroke-width="1.5"></path><path d="M1311.55 214.78L1287.59 370.55" stroke="#132e65" stroke-width="1.5"></path><path d="M1311.55 214.78L1396.05 355.04" stroke="#132e65" stroke-width="1.5"></path><path d="M1311.55 214.78L1408.12 59.72" stroke="#132e65" stroke-width="1.5"></path><path d="M1287.59 370.55L1287.59 370.55" stroke="#132e65" stroke-width="1.5"></path><path d="M1287.59 370.55L1396.05 355.04" stroke="#132e65" stroke-width="1.5"></path><path d="M1287.59 370.55L1262.38 487.88" stroke="#132e65" stroke-width="1.5"></path><path d="M1287.59 370.55L1435.74 239.94" stroke="#132e65" stroke-width="1.5"></path><path d="M1262.38 487.88L1262.38 487.88" stroke="#132e65" stroke-width="1.5"></path><path d="M1262.38 487.88L1409.42 555.09" stroke="#132e65" stroke-width="1.5"></path><path d="M1262.38 487.88L1396.05 355.04" stroke="#132e65" stroke-width="1.5"></path><path d="M1262.38 487.88L1271.31 686.09" stroke="#132e65" stroke-width="1.5"></path><path d="M1262.38 487.88L1089.44 361.25" stroke="#132e65" stroke-width="1.5"></path><path d="M1262.38 487.88L1424.89 647.3" stroke="#132e65" stroke-width="1.5"></path><path d="M1271.31 686.09L1271.31 686.09" stroke="#132e65" stroke-width="1.5"></path><path d="M1271.31 686.09L1424.89 647.3" stroke="#132e65" stroke-width="1.5"></path><path d="M1271.31 686.09L1409.42 555.09" stroke="#132e65" stroke-width="1.5"></path><path d="M1413.09 -111.89L1413.09 -111.89" stroke="#132e65" stroke-width="1.5"></path><path d="M1413.09 -111.89L1540.57 -42.69" stroke="#132e65" stroke-width="1.5"></path><path d="M1413.09 -111.89L1408.12 59.72" stroke="#132e65" stroke-width="1.5"></path><path d="M1413.09 -111.89L1112.16 -105.72" stroke="#132e65" stroke-width="1.5"></path><path d="M1408.12 59.72L1408.12 59.72" stroke="#132e65" stroke-width="1.5"></path><path d="M1435.74 239.94L1435.74 239.94" stroke="#132e65" stroke-width="1.5"></path><path d="M1435.74 239.94L1551.66 219.66" stroke="#132e65" stroke-width="1.5"></path><path d="M1435.74 239.94L1396.05 355.04" stroke="#132e65" stroke-width="1.5"></path><path d="M1396.05 355.04L1396.05 355.04" stroke="#132e65" stroke-width="1.5"></path><path d="M1409.42 555.09L1409.42 555.09" stroke="#132e65" stroke-width="1.5"></path><path d="M1409.42 555.09L1424.89 647.3" stroke="#132e65" stroke-width="1.5"></path><path d="M1409.42 555.09L1554.09 675.83" stroke="#132e65" stroke-width="1.5"></path><path d="M1409.42 555.09L1396.05 355.04" stroke="#132e65" stroke-width="1.5"></path><path d="M1424.89 647.3L1424.89 647.3" stroke="#132e65" stroke-width="1.5"></path><path d="M1424.89 647.3L1554.09 675.83" stroke="#132e65" stroke-width="1.5"></path><path d="M1540.57 -42.69L1540.57 -42.69" stroke="#132e65" stroke-width="1.5"></path><path d="M1540.57 -42.69L1408.12 59.72" stroke="#132e65" stroke-width="1.5"></path><path d="M1540.57 -42.69L1551.66 219.66" stroke="#132e65" stroke-width="1.5"></path><path d="M1540.57 -42.69L1283.23 52.73" stroke="#132e65" stroke-width="1.5"></path><path d="M1540.57 -42.69L1255.58 -81.89" stroke="#132e65" stroke-width="1.5"></path><path d="M1540.57 -42.69L1435.74 239.94" stroke="#132e65" stroke-width="1.5"></path><path d="M1551.66 219.66L1551.66 219.66" stroke="#132e65" stroke-width="1.5"></path><path d="M1551.66 219.66L1564.98 395.84" stroke="#132e65" stroke-width="1.5"></path><path d="M1551.66 219.66L1396.05 355.04" stroke="#132e65" stroke-width="1.5"></path><path d="M1564.98 395.84L1564.98 395.84" stroke="#132e65" stroke-width="1.5"></path><path d="M1564.98 395.84L1396.05 355.04" stroke="#132e65" stroke-width="1.5"></path><path d="M1554.09 675.83L1554.09 675.83" stroke="#132e65" stroke-width="1.5"></path><path d="M1554.09 675.83L1564.98 395.84" stroke="#132e65" stroke-width="1.5"></path><path d="M1554.09 675.83L1271.31 686.09" stroke="#132e65" stroke-width="1.5"></path><circle r="5" cx="-69.44" cy="370.36" fill="#132e65"></circle><circle r="5" cx="-37.92" cy="506.09" fill="#132e65"></circle><circle r="5" cx="-40.35" cy="685.38" fill="#132e65"></circle><circle r="5" cx="51.73" cy="388.92" fill="#132e65"></circle><circle r="5" cx="60.74" cy="556.16" fill="#132e65"></circle><circle r="5" cx="45.37" cy="685.87" fill="#132e65"></circle><circle r="5" cx="195.66" cy="412.31" fill="#132e65"></circle><circle r="5" cx="248.88" cy="556.41" fill="#132e65"></circle><circle r="5" cx="190.89" cy="644.58" fill="#132e65"></circle><circle r="5" cx="385.62" cy="365.84" fill="#132e65"></circle><circle r="5" cx="368.28" cy="638.8" fill="#132e65"></circle><circle r="5" cx="521.74" cy="412.19" fill="#132e65"></circle><circle r="5" cx="562.44" cy="558.83" fill="#132e65"></circle><circle r="5" cx="544.69" cy="661.1" fill="#132e65"></circle><circle r="5" cx="712.23" cy="225.94" fill="#132e65"></circle><circle r="5" cx="691.98" cy="350.26" fill="#132e65"></circle><circle r="5" cx="671.9" cy="507.21" fill="#132e65"></circle><circle r="5" cx="704.19" cy="669" fill="#132e65"></circle><circle r="5" cx="843.87" cy="216.65" fill="#132e65"></circle><circle r="5" cx="847.95" cy="347.32" fill="#132e65"></circle><circle r="5" cx="811.92" cy="516.58" fill="#132e65"></circle><circle r="5" cx="819.38" cy="702.84" fill="#132e65"></circle><circle r="5" cx="995.72" cy="-40.43" fill="#132e65"></circle><circle r="5" cx="954.56" cy="44.27" fill="#132e65"></circle><circle r="5" cx="1010.09" cy="245.99" fill="#132e65"></circle><circle r="5" cx="998.1" cy="373.33" fill="#132e65"></circle><circle r="5" cx="942.25" cy="489.25" fill="#132e65"></circle><circle r="5" cx="962.44" cy="701.07" fill="#132e65"></circle><circle r="5" cx="1112.16" cy="-105.72" fill="#132e65"></circle><circle r="5" cx="1117.95" cy="59.78" fill="#132e65"></circle><circle r="5" cx="1122.02" cy="259.05" fill="#132e65"></circle><circle r="5" cx="1089.44" cy="361.25" fill="#132e65"></circle><circle r="5" cx="1130.79" cy="685.45" fill="#132e65"></circle><circle r="5" cx="1255.58" cy="-81.89" fill="#132e65"></circle><circle r="5" cx="1283.23" cy="52.73" fill="#132e65"></circle><circle r="5" cx="1311.55" cy="214.78" fill="#132e65"></circle><circle r="5" cx="1287.59" cy="370.55" fill="#132e65"></circle><circle r="5" cx="1262.38" cy="487.88" fill="#132e65"></circle><circle r="5" cx="1271.31" cy="686.09" fill="#132e65"></circle><circle r="5" cx="1413.09" cy="-111.89" fill="#132e65"></circle><circle r="5" cx="1408.12" cy="59.72" fill="#132e65"></circle><circle r="5" cx="1435.74" cy="239.94" fill="#132e65"></circle><circle r="5" cx="1396.05" cy="355.04" fill="#132e65"></circle><circle r="5" cx="1409.42" cy="555.09" fill="#132e65"></circle><circle r="5" cx="1424.89" cy="647.3" fill="#132e65"></circle><circle r="5" cx="1540.57" cy="-42.69" fill="#132e65"></circle><circle r="5" cx="1551.66" cy="219.66" fill="#132e65"></circle><circle r="5" cx="1564.98" cy="395.84" fill="#132e65"></circle><circle r="5" cx="1554.09" cy="675.83" fill="#132e65"></circle><path d="M-92 543.28L-92 543.28" stroke="hsl(228.5, 77.2%, 51.5%)" stroke-width="1.5"></path><path d="M-92 543.28L-48.37 706.26" stroke="hsl(228.5, 77.2%, 51.5%)" stroke-width="1.5"></path><path d="M-92 543.28L75.46 511.34" stroke="hsl(228.5, 77.2%, 51.5%)" stroke-width="1.5"></path><path d="M-92 543.28L56.12 666.61" stroke="hsl(228.5, 77.2%, 51.5%)" stroke-width="1.5"></path><path d="M-92 543.28L204.03 512.18" stroke="hsl(228.5, 77.2%, 51.5%)" stroke-width="1.5"></path><path d="M861.23 385.82L861.23 385.82" stroke="hsl(228.5, 77.2%, 51.5%)" stroke-width="1.5"></path><path d="M861.23 385.82L961.27 388.55" stroke="hsl(228.5, 77.2%, 51.5%)" stroke-width="1.5"></path><path d="M861.23 385.82L855.98 514.04" stroke="hsl(228.5, 77.2%, 51.5%)" stroke-width="1.5"></path><path d="M861.23 385.82L707.19 394.3" stroke="hsl(228.5, 77.2%, 51.5%)" stroke-width="1.5"></path><path d="M990.39 669.44L990.39 669.44" stroke="hsl(228.5, 77.2%, 51.5%)" stroke-width="1.5"></path><path d="M990.39 669.44L1105.93 646.44" stroke="hsl(228.5, 77.2%, 51.5%)" stroke-width="1.5"></path><path d="M990.39 669.44L958.24 537.07" stroke="hsl(228.5, 77.2%, 51.5%)" stroke-width="1.5"></path><path d="M990.39 669.44L796.41 687.56" stroke="hsl(228.5, 77.2%, 51.5%)" stroke-width="1.5"></path><path d="M1302.05 347.06L1302.05 347.06" stroke="hsl(228.5, 77.2%, 51.5%)" stroke-width="1.5"></path><path d="M1302.05 347.06L1398.47 384.11" stroke="hsl(228.5, 77.2%, 51.5%)" stroke-width="1.5"></path><path d="M1302.05 347.06L1298.23 226.33" stroke="hsl(228.5, 77.2%, 51.5%)" stroke-width="1.5"></path><path d="M1302.05 347.06L1254.03 510.79" stroke="hsl(228.5, 77.2%, 51.5%)" stroke-width="1.5"></path><path d="M1444.32 190.16L1444.32 190.16" stroke="hsl(228.5, 77.2%, 51.5%)" stroke-width="1.5"></path><path d="M1444.32 190.16L1452.43 87.46" stroke="hsl(228.5, 77.2%, 51.5%)" stroke-width="1.5"></path><path d="M1444.32 190.16L1298.23 226.33" stroke="hsl(228.5, 77.2%, 51.5%)" stroke-width="1.5"></path><path d="M1444.32 190.16L1585.62 89.25" stroke="hsl(228.5, 77.2%, 51.5%)" stroke-width="1.5"></path><path d="M1444.32 190.16L1296.7 85.83" stroke="hsl(228.5, 77.2%, 51.5%)" stroke-width="1.5"></path><path d="M1444.32 190.16L1398.47 384.11" stroke="hsl(228.5, 77.2%, 51.5%)" stroke-width="1.5"></path><path d="M1444.32 190.16L1302.05 347.06" stroke="hsl(228.5, 77.2%, 51.5%)" stroke-width="1.5"></path><path d="M1404.93 528.62L1404.93 528.62" stroke="hsl(228.5, 77.2%, 51.5%)" stroke-width="1.5"></path><path d="M1404.93 528.62L1432.4 640.4" stroke="hsl(228.5, 77.2%, 51.5%)" stroke-width="1.5"></path><path d="M1404.93 528.62L1398.47 384.11" stroke="hsl(228.5, 77.2%, 51.5%)" stroke-width="1.5"></path><path d="M1404.93 528.62L1254.03 510.79" stroke="hsl(228.5, 77.2%, 51.5%)" stroke-width="1.5"></path><path d="M1404.93 528.62L1303.75 663.59" stroke="hsl(228.5, 77.2%, 51.5%)" stroke-width="1.5"></path><path d="M1404.93 528.62L1589.71 534.43" stroke="hsl(228.5, 77.2%, 51.5%)" stroke-width="1.5"></path><path d="M1432.4 640.4L1432.4 640.4" stroke="hsl(228.5, 77.2%, 51.5%)" stroke-width="1.5"></path><path d="M1432.4 640.4L1303.75 663.59" stroke="hsl(228.5, 77.2%, 51.5%)" stroke-width="1.5"></path><path d="M1432.4 640.4L1600.55 673.93" stroke="hsl(228.5, 77.2%, 51.5%)" stroke-width="1.5"></path><path d="M1600.47 -109.32L1600.47 -109.32" stroke="hsl(228.5, 77.2%, 51.5%)" stroke-width="1.5"></path><path d="M1600.47 -109.32L1435.63 -68.31" stroke="hsl(228.5, 77.2%, 51.5%)" stroke-width="1.5"></path><path d="M1600.47 -109.32L1585.62 89.25" stroke="hsl(228.5, 77.2%, 51.5%)" stroke-width="1.5"></path><path d="M1600.47 -109.32L1452.43 87.46" stroke="hsl(228.5, 77.2%, 51.5%)" stroke-width="1.5"></path><path d="M1600.47 -109.32L1277.02 -96.02" stroke="hsl(228.5, 77.2%, 51.5%)" stroke-width="1.5"></path><path d="M1600.47 -109.32L1444.32 190.16" stroke="hsl(228.5, 77.2%, 51.5%)" stroke-width="1.5"></path><path d="M-48.37 706.26L-48.37 706.26" stroke="hsl(228.5, 77.2%, 51.5%)" stroke-width="1.5"></path><path d="M-48.37 706.26L56.12 666.61" stroke="hsl(228.5, 77.2%, 51.5%)" stroke-width="1.5"></path><path d="M-48.37 706.26L75.46 511.34" stroke="hsl(228.5, 77.2%, 51.5%)" stroke-width="1.5"></path><path d="M-48.37 706.26L245.53 694.84" stroke="hsl(228.5, 77.2%, 51.5%)" stroke-width="1.5"></path><path d="M-48.37 706.26L204.03 512.18" stroke="hsl(228.5, 77.2%, 51.5%)" stroke-width="1.5"></path><path d="M-48.37 706.26L346.65 687.64" stroke="hsl(228.5, 77.2%, 51.5%)" stroke-width="1.5"></path><path d="M75.46 511.34L75.46 511.34" stroke="hsl(228.5, 77.2%, 51.5%)" stroke-width="1.5"></path><path d="M75.46 511.34L204.03 512.18" stroke="hsl(228.5, 77.2%, 51.5%)" stroke-width="1.5"></path><path d="M75.46 511.34L56.12 666.61" stroke="hsl(228.5, 77.2%, 51.5%)" stroke-width="1.5"></path><path d="M56.12 666.61L56.12 666.61" stroke="hsl(228.5, 77.2%, 51.5%)" stroke-width="1.5"></path><path d="M56.12 666.61L245.53 694.84" stroke="hsl(228.5, 77.2%, 51.5%)" stroke-width="1.5"></path><path d="M56.12 666.61L204.03 512.18" stroke="hsl(228.5, 77.2%, 51.5%)" stroke-width="1.5"></path><path d="M204.03 512.18L204.03 512.18" stroke="hsl(228.5, 77.2%, 51.5%)" stroke-width="1.5"></path><path d="M204.03 512.18L245.53 694.84" stroke="hsl(228.5, 77.2%, 51.5%)" stroke-width="1.5"></path><path d="M204.03 512.18L346.65 687.64" stroke="hsl(228.5, 77.2%, 51.5%)" stroke-width="1.5"></path><path d="M245.53 694.84L245.53 694.84" stroke="hsl(228.5, 77.2%, 51.5%)" stroke-width="1.5"></path><path d="M245.53 694.84L346.65 687.64" stroke="hsl(228.5, 77.2%, 51.5%)" stroke-width="1.5"></path><path d="M346.65 687.64L346.65 687.64" stroke="hsl(228.5, 77.2%, 51.5%)" stroke-width="1.5"></path><path d="M346.65 687.64L510.08 544.35" stroke="hsl(228.5, 77.2%, 51.5%)" stroke-width="1.5"></path><path d="M346.65 687.64L56.12 666.61" stroke="hsl(228.5, 77.2%, 51.5%)" stroke-width="1.5"></path><path d="M557.24 394.55L557.24 394.55" stroke="hsl(228.5, 77.2%, 51.5%)" stroke-width="1.5"></path><path d="M557.24 394.55L707.19 394.3" stroke="hsl(228.5, 77.2%, 51.5%)" stroke-width="1.5"></path><path d="M557.24 394.55L510.08 544.35" stroke="hsl(228.5, 77.2%, 51.5%)" stroke-width="1.5"></path><path d="M557.24 394.55L861.23 385.82" stroke="hsl(228.5, 77.2%, 51.5%)" stroke-width="1.5"></path><path d="M557.24 394.55L640.8 691.67" stroke="hsl(228.5, 77.2%, 51.5%)" stroke-width="1.5"></path><path d="M510.08 544.35L510.08 544.35" stroke="hsl(228.5, 77.2%, 51.5%)" stroke-width="1.5"></path><path d="M510.08 544.35L640.8 691.67" stroke="hsl(228.5, 77.2%, 51.5%)" stroke-width="1.5"></path><path d="M707.19 394.3L707.19 394.3" stroke="hsl(228.5, 77.2%, 51.5%)" stroke-width="1.5"></path><path d="M707.19 394.3L855.98 514.04" stroke="hsl(228.5, 77.2%, 51.5%)" stroke-width="1.5"></path><path d="M707.19 394.3L510.08 544.35" stroke="hsl(228.5, 77.2%, 51.5%)" stroke-width="1.5"></path><path d="M707.19 394.3L961.27 388.55" stroke="hsl(228.5, 77.2%, 51.5%)" stroke-width="1.5"></path><path d="M640.8 691.67L640.8 691.67" stroke="hsl(228.5, 77.2%, 51.5%)" stroke-width="1.5"></path><path d="M640.8 691.67L796.41 687.56" stroke="hsl(228.5, 77.2%, 51.5%)" stroke-width="1.5"></path><path d="M855.98 514.04L855.98 514.04" stroke="hsl(228.5, 77.2%, 51.5%)" stroke-width="1.5"></path><path d="M855.98 514.04L958.24 537.07" stroke="hsl(228.5, 77.2%, 51.5%)" stroke-width="1.5"></path><path d="M855.98 514.04L961.27 388.55" stroke="hsl(228.5, 77.2%, 51.5%)" stroke-width="1.5"></path><path d="M855.98 514.04L796.41 687.56" stroke="hsl(228.5, 77.2%, 51.5%)" stroke-width="1.5"></path><path d="M796.41 687.56L796.41 687.56" stroke="hsl(228.5, 77.2%, 51.5%)" stroke-width="1.5"></path><path d="M796.41 687.56L958.24 537.07" stroke="hsl(228.5, 77.2%, 51.5%)" stroke-width="1.5"></path><path d="M796.41 687.56L707.19 394.3" stroke="hsl(228.5, 77.2%, 51.5%)" stroke-width="1.5"></path><path d="M796.41 687.56L861.23 385.82" stroke="hsl(228.5, 77.2%, 51.5%)" stroke-width="1.5"></path><path d="M961.27 388.55L961.27 388.55" stroke="hsl(228.5, 77.2%, 51.5%)" stroke-width="1.5"></path><path d="M961.27 388.55L958.24 537.07" stroke="hsl(228.5, 77.2%, 51.5%)" stroke-width="1.5"></path><path d="M961.27 388.55L1106.63 354.73" stroke="hsl(228.5, 77.2%, 51.5%)" stroke-width="1.5"></path><path d="M961.27 388.55L1158.85 494.84" stroke="hsl(228.5, 77.2%, 51.5%)" stroke-width="1.5"></path><path d="M958.24 537.07L958.24 537.07" stroke="hsl(228.5, 77.2%, 51.5%)" stroke-width="1.5"></path><path d="M958.24 537.07L861.23 385.82" stroke="hsl(228.5, 77.2%, 51.5%)" stroke-width="1.5"></path><path d="M1146.04 209.67L1146.04 209.67" stroke="hsl(228.5, 77.2%, 51.5%)" stroke-width="1.5"></path><path d="M1146.04 209.67L1106.63 354.73" stroke="hsl(228.5, 77.2%, 51.5%)" stroke-width="1.5"></path><path d="M1146.04 209.67L1298.23 226.33" stroke="hsl(228.5, 77.2%, 51.5%)" stroke-width="1.5"></path><path d="M1106.63 354.73L1106.63 354.73" stroke="hsl(228.5, 77.2%, 51.5%)" stroke-width="1.5"></path><path d="M1106.63 354.73L1158.85 494.84" stroke="hsl(228.5, 77.2%, 51.5%)" stroke-width="1.5"></path><path d="M1106.63 354.73L1302.05 347.06" stroke="hsl(228.5, 77.2%, 51.5%)" stroke-width="1.5"></path><path d="M1106.63 354.73L1254.03 510.79" stroke="hsl(228.5, 77.2%, 51.5%)" stroke-width="1.5"></path><path d="M1158.85 494.84L1158.85 494.84" stroke="hsl(228.5, 77.2%, 51.5%)" stroke-width="1.5"></path><path d="M1158.85 494.84L1254.03 510.79" stroke="hsl(228.5, 77.2%, 51.5%)" stroke-width="1.5"></path><path d="M1105.93 646.44L1105.93 646.44" stroke="hsl(228.5, 77.2%, 51.5%)" stroke-width="1.5"></path><path d="M1105.93 646.44L1158.85 494.84" stroke="hsl(228.5, 77.2%, 51.5%)" stroke-width="1.5"></path><path d="M1105.93 646.44L958.24 537.07" stroke="hsl(228.5, 77.2%, 51.5%)" stroke-width="1.5"></path><path d="M1277.02 -96.02L1277.02 -96.02" stroke="hsl(228.5, 77.2%, 51.5%)" stroke-width="1.5"></path><path d="M1277.02 -96.02L1435.63 -68.31" stroke="hsl(228.5, 77.2%, 51.5%)" stroke-width="1.5"></path><path d="M1277.02 -96.02L1296.7 85.83" stroke="hsl(228.5, 77.2%, 51.5%)" stroke-width="1.5"></path><path d="M1277.02 -96.02L1452.43 87.46" stroke="hsl(228.5, 77.2%, 51.5%)" stroke-width="1.5"></path><path d="M1277.02 -96.02L1298.23 226.33" stroke="hsl(228.5, 77.2%, 51.5%)" stroke-width="1.5"></path><path d="M1296.7 85.83L1296.7 85.83" stroke="hsl(228.5, 77.2%, 51.5%)" stroke-width="1.5"></path><path d="M1296.7 85.83L1298.23 226.33" stroke="hsl(228.5, 77.2%, 51.5%)" stroke-width="1.5"></path><path d="M1296.7 85.83L1452.43 87.46" stroke="hsl(228.5, 77.2%, 51.5%)" stroke-width="1.5"></path><path d="M1298.23 226.33L1298.23 226.33" stroke="hsl(228.5, 77.2%, 51.5%)" stroke-width="1.5"></path><path d="M1298.23 226.33L1398.47 384.11" stroke="hsl(228.5, 77.2%, 51.5%)" stroke-width="1.5"></path><path d="M1254.03 510.79L1254.03 510.79" stroke="hsl(228.5, 77.2%, 51.5%)" stroke-width="1.5"></path><path d="M1254.03 510.79L1303.75 663.59" stroke="hsl(228.5, 77.2%, 51.5%)" stroke-width="1.5"></path><path d="M1254.03 510.79L1398.47 384.11" stroke="hsl(228.5, 77.2%, 51.5%)" stroke-width="1.5"></path><path d="M1303.75 663.59L1303.75 663.59" stroke="hsl(228.5, 77.2%, 51.5%)" stroke-width="1.5"></path><path d="M1303.75 663.59L1105.93 646.44" stroke="hsl(228.5, 77.2%, 51.5%)" stroke-width="1.5"></path><path d="M1303.75 663.59L1158.85 494.84" stroke="hsl(228.5, 77.2%, 51.5%)" stroke-width="1.5"></path><path d="M1435.63 -68.31L1435.63 -68.31" stroke="hsl(228.5, 77.2%, 51.5%)" stroke-width="1.5"></path><path d="M1435.63 -68.31L1452.43 87.46" stroke="hsl(228.5, 77.2%, 51.5%)" stroke-width="1.5"></path><path d="M1435.63 -68.31L1296.7 85.83" stroke="hsl(228.5, 77.2%, 51.5%)" stroke-width="1.5"></path><path d="M1452.43 87.46L1452.43 87.46" stroke="hsl(228.5, 77.2%, 51.5%)" stroke-width="1.5"></path><path d="M1452.43 87.46L1585.62 89.25" stroke="hsl(228.5, 77.2%, 51.5%)" stroke-width="1.5"></path><path d="M1398.47 384.11L1398.47 384.11" stroke="hsl(228.5, 77.2%, 51.5%)" stroke-width="1.5"></path><path d="M1585.62 89.25L1585.62 89.25" stroke="hsl(228.5, 77.2%, 51.5%)" stroke-width="1.5"></path><path d="M1585.62 89.25L1435.63 -68.31" stroke="hsl(228.5, 77.2%, 51.5%)" stroke-width="1.5"></path><path d="M1585.62 89.25L1296.7 85.83" stroke="hsl(228.5, 77.2%, 51.5%)" stroke-width="1.5"></path><path d="M1585.62 89.25L1607.31 383.72" stroke="hsl(228.5, 77.2%, 51.5%)" stroke-width="1.5"></path><path d="M1607.31 383.72L1607.31 383.72" stroke="hsl(228.5, 77.2%, 51.5%)" stroke-width="1.5"></path><path d="M1607.31 383.72L1589.71 534.43" stroke="hsl(228.5, 77.2%, 51.5%)" stroke-width="1.5"></path><path d="M1607.31 383.72L1398.47 384.11" stroke="hsl(228.5, 77.2%, 51.5%)" stroke-width="1.5"></path><path d="M1589.71 534.43L1589.71 534.43" stroke="hsl(228.5, 77.2%, 51.5%)" stroke-width="1.5"></path><path d="M1589.71 534.43L1600.55 673.93" stroke="hsl(228.5, 77.2%, 51.5%)" stroke-width="1.5"></path><path d="M1600.55 673.93L1600.55 673.93" stroke="hsl(228.5, 77.2%, 51.5%)" stroke-width="1.5"></path><circle r="25" cx="-92" cy="543.28" fill="url(#SvgjsRadialGradient1322)"></circle><circle r="25" cx="861.23" cy="385.82" fill="url(#SvgjsRadialGradient1322)"></circle><circle r="25" cx="990.39" cy="669.44" fill="url(#SvgjsRadialGradient1322)"></circle><circle r="25" cx="1302.05" cy="347.06" fill="url(#SvgjsRadialGradient1322)"></circle><circle r="25" cx="1444.32" cy="190.16" fill="url(#SvgjsRadialGradient1322)"></circle><circle r="25" cx="1404.93" cy="528.62" fill="url(#SvgjsRadialGradient1322)"></circle><circle r="25" cx="1432.4" cy="640.4" fill="url(#SvgjsRadialGradient1322)"></circle><circle r="25" cx="1600.47" cy="-109.32" fill="url(#SvgjsRadialGradient1322)"></circle><circle r="5" cx="-48.37" cy="706.26" fill="#8b9ad9"></circle><circle r="5" cx="75.46" cy="511.34" fill="#8b9ad9"></circle><circle r="5" cx="56.12" cy="666.61" fill="#8b9ad9"></circle><circle r="5" cx="204.03" cy="512.18" fill="#8b9ad9"></circle><circle r="5" cx="245.53" cy="694.84" fill="#8b9ad9"></circle><circle r="5" cx="346.65" cy="687.64" fill="#8b9ad9"></circle><circle r="5" cx="557.24" cy="394.55" fill="#8b9ad9"></circle><circle r="5" cx="510.08" cy="544.35" fill="#8b9ad9"></circle><circle r="5" cx="707.19" cy="394.3" fill="#8b9ad9"></circle><circle r="5" cx="640.8" cy="691.67" fill="#8b9ad9"></circle><circle r="5" cx="855.98" cy="514.04" fill="#8b9ad9"></circle><circle r="5" cx="796.41" cy="687.56" fill="#8b9ad9"></circle><circle r="5" cx="961.27" cy="388.55" fill="#8b9ad9"></circle><circle r="5" cx="958.24" cy="537.07" fill="#8b9ad9"></circle><circle r="5" cx="1146.04" cy="209.67" fill="#8b9ad9"></circle><circle r="5" cx="1106.63" cy="354.73" fill="#8b9ad9"></circle><circle r="5" cx="1158.85" cy="494.84" fill="#8b9ad9"></circle><circle r="5" cx="1105.93" cy="646.44" fill="#8b9ad9"></circle><circle r="5" cx="1277.02" cy="-96.02" fill="#8b9ad9"></circle><circle r="5" cx="1296.7" cy="85.83" fill="#8b9ad9"></circle><circle r="5" cx="1298.23" cy="226.33" fill="#8b9ad9"></circle><circle r="5" cx="1254.03" cy="510.79" fill="#8b9ad9"></circle><circle r="5" cx="1303.75" cy="663.59" fill="#8b9ad9"></circle><circle r="5" cx="1435.63" cy="-68.31" fill="#8b9ad9"></circle><circle r="5" cx="1452.43" cy="87.46" fill="#8b9ad9"></circle><circle r="5" cx="1398.47" cy="384.11" fill="#8b9ad9"></circle><circle r="5" cx="1585.62" cy="89.25" fill="#8b9ad9"></circle><circle r="5" cx="1607.31" cy="383.72" fill="#8b9ad9"></circle><circle r="5" cx="1589.71" cy="534.43" fill="#8b9ad9"></circle><circle r="5" cx="1600.55" cy="673.93" fill="#8b9ad9"></circle></g><defs><mask id="SvgjsMask1320"><rect width="1440" height="560" fill="#ffffff"></rect></mask><linearGradient x1="15.28%" y1="-39.29%" x2="84.72%" y2="139.29%" gradientUnits="userSpaceOnUse" id="SvgjsLinearGradient1321"><stop stop-color="#0e2a47" offset="0"></stop><stop stop-color="rgba(17, 67, 133, 1)" offset="1"></stop></linearGradient><radialGradient id="SvgjsRadialGradient1322"><stop stop-color="#ffffff" offset="0.1"></stop><stop stop-color="#1735b3" offset="0.2"></stop><stop stop-color="rgba(23, 53, 179, 0)" offset="1"></stop></radialGradient></defs></svg>